<svg height="16px" viewBox="0 -7 511.94823 511" width="16px" xmlns="http://www.w3.org/2000/svg"><path d="m168.949219 445.914062c-1.945313 0-3.894531-.742187-5.382813-2.230468-2.972656-2.972656-2.972656-7.789063 0-10.761719l83.191406-83.195313c2.972657-2.972656 7.792969-2.972656 10.765626 0 2.972656 2.972657 2.972656 7.792969 0 10.765626l-83.191407 83.191406c-1.488281 1.484375-3.4375 2.230468-5.382812 2.230468zm0 0" fill="#fd8f07"/><path d="m45.179688 366.738281c-1.945313 0-3.894532-.746093-5.382813-2.230469-2.96875-2.972656-2.96875-7.792968 0-10.765624l86.625-86.621094c2.972656-2.972656 7.789063-2.972656 10.761719 0s2.972656 7.792968 0 10.761718l-86.621094 86.625c-1.484375 1.484376-3.433594 2.230469-5.382812 2.230469zm0 0" fill="#fd8f07"/><path d="m448.976562 492.730469c27.382813-27.386719-49.695312-148.867188-172.164062-271.335938s-243.949219-199.550781-271.335938-172.164062c-27.386718 27.386719 49.695313 148.867187 172.164063 271.335937s243.949219 199.550782 271.335937 172.164063zm0 0" fill="#d82fea"/><path d="m444.621094 429.519531c18.277344-18.277343-51.0625-117.25-154.875-221.0625-103.808594-103.808593-202.78125-173.148437-221.0625-154.871093-18.277344 18.277343 51.0625 117.25 154.875 221.0625s202.785156 173.152343 221.0625 154.871093zm0 0" fill="#2de0c7"/><path d="m413.429688 347.164062c-10.535157 10.53125-66.03125-27.460937-129.324219-87.242187-7.648438-7.21875-15.421875-14.765625-23.238281-22.582031-7.8125-7.8125-15.359376-15.585938-22.578126-23.238282-59.78125-63.292968-97.777343-118.789062-87.242187-129.320312 9.988281-9.988281 60.480469 23.730469 119.714844 78.292969 10.722656 9.875 21.730469 20.433593 32.835937 31.535156 11.105469 11.105469 21.664063 22.113281 31.539063 32.839844 54.558593 59.234375 88.277343 109.726562 78.292969 119.714843zm0 0" fill="#6163aa"/><path d="m284.320312 259.878906c-.066406.015625-.144531.027344-.214843.042969-7.648438-7.21875-15.421875-14.765625-23.238281-22.582031-7.8125-7.8125-15.359376-15.585938-22.578126-23.238282.015626-.066406.023438-.144531.042969-.214843 3.832031-18.859375 16.289063-37.457031 32.429688-50.8125 11.121093-9.234375 24.007812-15.976563 37.007812-18.625 31.875-6.484375 52.472657 14.117187 45.992188 45.992187-2.648438 13-9.390625 25.886719-18.625 37.007813-13.355469 16.140625-31.957031 28.59375-50.816407 32.429687zm0 0" fill="#fda736"/><path d="m353.761719 190.445312c-2.644531 13-9.386719 25.886719-18.628907 37-13.355468 16.144532-31.945312 28.59375-50.808593 32.4375-.074219.011719-.148438.023438-.21875.035157-5.644531-5.308594-11.347657-10.804688-17.078125-16.472657 18.9375-4.371093 37.46875-16.988281 50.882812-33.207031 9.570313-11.53125 16.5625-24.871093 19.300782-38.347656 1.910156-9.378906 1.554687-17.808594-.683594-24.921875 14.261718 6.878906 21.445312 22.804688 17.234375 43.476562zm0 0" fill="#fd8f07"/><path d="m377.042969 215.683594c-1.949219 0-3.898438-.742188-5.382813-2.230469-2.972656-2.972656-2.972656-7.792969 0-10.761719l127.292969-127.296875c2.972656-2.972656 7.792969-2.972656 10.765625 0 2.972656 2.972657 2.972656 7.792969 0 10.761719l-127.292969 127.296875c-1.488281 1.484375-3.4375 2.230469-5.382812 2.230469zm0 0" fill="#fd8f07"/><path d="m351.421875 285.980469c-1.949219 0-3.898437-.742188-5.382813-2.230469-2.972656-2.972656-2.972656-7.792969 0-10.761719l66.539063-66.539062c2.972656-2.972657 7.789063-2.972657 10.761719 0 2.972656 2.96875 2.972656 7.789062 0 10.761719l-66.539063 66.539062c-1.484375 1.488281-3.433593 2.230469-5.378906 2.230469zm0 0" fill="#fed370"/><path d="m386.886719 16.007812-132.410157 132.402344-39.8125 39.8125c-3.441406-3.90625-6.78125-7.753906-9.988281-11.539062l171.441407-171.441406c2.976562-2.972657 7.796874-2.972657 10.769531 0 2.972656 2.972656 2.972656 7.792968 0 10.765624zm0 0" fill="#fd8f07"/><path d="m338.46875 105.523438c-1.949219 0-3.898438-.742188-5.382812-2.230469-2.972657-2.972657-2.972657-7.789063 0-10.761719l15.679687-15.679688c2.972656-2.972656 7.792969-2.972656 10.765625 0 2.972656 2.972657 2.972656 7.792969 0 10.761719l-15.679688 15.679688c-1.488281 1.488281-3.433593 2.230469-5.382812 2.230469zm0 0" fill="#fed370"/><path d="m217.773438 133.214844c-1.949219 0-3.898438-.742188-5.382813-2.230469-2.972656-2.972656-2.972656-7.789063 0-10.761719l28.535156-28.539062c2.972657-2.972656 7.792969-2.972656 10.765625 0s2.972656 7.792968 0 10.765625l-28.539062 28.535156c-1.484375 1.488281-3.433594 2.230469-5.378906 2.230469zm0 0" fill="#fed370"/><path d="m296.988281 229.179688c-.011719 0-.019531 0-.03125 0h-.136719c-4.203124-.015626-7.597656-3.4375-7.582031-7.640626.015625-4.191406 3.421875-7.582031 7.609375-7.582031h.03125.136719c4.203125.015625 7.597656 3.4375 7.582031 7.640625-.015625 4.191406-3.417968 7.582032-7.609375 7.582032zm0 0" fill="#fc5921"/><path d="m297.1875 205.554688c-.011719 0-.019531 0-.03125 0h-.136719c-4.203125-.015626-7.597656-3.433594-7.582031-7.636719.015625-4.195313 3.417969-7.585938 7.609375-7.585938h.03125.136719c4.203125.015625 7.597656 3.4375 7.582031 7.640625-.015625 4.195313-3.421875 7.582032-7.609375 7.582032zm0 0" fill="#fc5921"/><path d="m7.871094 462.882812c-1.949219 0-3.898438-.742187-5.386719-2.230468-2.96875-2.972656-2.96875-7.789063 0-10.761719l104.738281-104.738281c2.972656-2.972656 7.792969-2.972656 10.765625 0 2.972657 2.96875 2.972657 7.789062 0 10.761718l-104.738281 104.738282c-1.484375 1.484375-3.433594 2.230468-5.378906 2.230468zm0 0" fill="#fda736"/><path d="m216.539062 437.347656c-1.949218 0-3.898437-.742187-5.386718-2.230468-2.96875-2.96875-2.96875-7.789063 0-10.761719l10.734375-10.734375c2.972656-2.972656 7.792969-2.972656 10.765625 0s2.972656 7.792968 0 10.765625l-10.734375 10.730469c-1.484375 1.488281-3.433594 2.230468-5.378907 2.230468zm0 0" fill="#fed370"/><path d="m33.644531 321.574219c-1.945312 0-3.894531-.746094-5.382812-2.230469-2.972657-2.972656-2.972657-7.792969 0-10.765625l11.535156-11.535156c2.972656-2.972657 7.792969-2.972657 10.765625 0 2.972656 2.972656 2.972656 7.792969 0 10.765625l-11.535156 11.535156c-1.484375 1.484375-3.433594 2.230469-5.382813 2.230469zm0 0" fill="#fd8f07"/><path d="m125.667969 105.070312h-.136719c-4.203125 0-7.609375-3.410156-7.609375-7.613281s3.40625-7.609375 7.609375-7.609375h.136719c4.203125 0 7.613281 3.40625 7.613281 7.609375s-3.40625 7.613281-7.613281 7.613281zm0 0" fill="#00c4ce"/><path d="m355.945312 429.0625c-.011718 0-.019531 0-.03125 0h-.136718c-4.203125-.015625-7.597656-3.4375-7.582032-7.640625.015626-4.191406 3.417969-7.582031 7.609376-7.582031h.03125.136718c4.203125.015625 7.597656 3.433594 7.582032 7.636718-.015626 4.195313-3.421876 7.585938-7.609376 7.585938zm0 0" fill="#5100cb"/><path d="m124.390625 126.941406h-.132813c-4.207031 0-7.613281-3.40625-7.613281-7.609375s3.40625-7.613281 7.613281-7.613281h.132813c4.207031 0 7.613281 3.410156 7.613281 7.613281s-3.40625 7.609375-7.613281 7.609375zm0 0" fill="#00c4ce"/><g fill="#fd8f07"><path d="m449 268.867188c-6.308594-6.308594-6.308594-16.539063 0-22.847657l16.710938-16.710937c6.308593-6.308594 16.539062-6.308594 22.847656 0 6.3125 6.308594 6.3125 16.539062 0 22.847656l-16.710938 16.710938c-6.308594 6.308593-16.539062 6.308593-22.847656 0zm0 0"/><path d="m92.828125 455.898438c-6.308594-6.308594-6.308594-16.539063 0-22.847657l16.710937-16.710937c6.308594-6.3125 16.539063-6.3125 22.847657 0 6.3125 6.308594 6.3125 16.539062 0 22.847656l-16.710938 16.710938c-6.308593 6.308593-16.539062 6.308593-22.847656 0zm0 0"/><path d="m250.117188 44.765625c-6.308594-6.308594-6.308594-16.539063 0-22.847656l16.710937-16.710938c6.308594-6.308593 16.539063-6.308593 22.847656 0 6.3125 6.308594 6.3125 16.539063 0 22.847657l-16.710937 16.710937c-6.308594 6.308594-16.539063 6.308594-22.847656 0zm0 0"/></g></svg>