<svg height="16px" viewBox="-84 0 512 512" width="16px" xmlns="http://www.w3.org/2000/svg"><path d="m229.257812 52.546875c-37.867187 0-68.566406 30.695313-68.566406 68.5625 0 37.871094 30.699219 68.566406 68.566406 68.566406 37.867188 0 68.5625-30.695312 68.5625-68.566406 0-37.867187-30.695312-68.5625-68.5625-68.5625zm0 96.667969c-15.523437 0-28.105468-12.582032-28.105468-28.105469 0-15.519531 12.582031-28.101563 28.105468-28.101563 15.519532 0 28.101563 12.582032 28.101563 28.101563 0 15.523437-12.582031 28.105469-28.101563 28.105469zm0 0" fill="#ffd46a"/><path d="m68.566406 0c-37.867187 0-68.566406 30.699219-68.566406 68.566406 0 37.867188 30.699219 68.566406 68.566406 68.566406 37.867188 0 68.566406-30.699218 68.566406-68.566406 0-37.867187-30.699218-68.566406-68.566406-68.566406zm0 96.667969c-15.519531 0-28.101562-12.582031-28.101562-28.101563 0-15.519531 12.582031-28.101562 28.101562-28.101562 15.519532 0 28.101563 12.582031 28.101563 28.101562 0 15.519532-12.582031 28.101563-28.101563 28.101563zm0 0" fill="#ffa92d"/><path d="m306.960938 176.070312c-9.917969-8.890624-24.9375-8.890624-34.855469 0-9.917969 8.890626-24.9375 8.890626-34.855469 0-9.917969-8.890624-24.9375-8.890624-34.855469 0-9.917969 8.890626-24.9375 8.890626-34.855469 0-9.917968-8.890624-24.9375-8.890624-34.855468 0-9.917969 8.890626-24.9375 8.890626-34.855469 0-9.917969-8.890624-24.9375-8.890624-34.855469 0-12.835937 11.507813-16.855468 29.960938-9.941406 45.753907 7.941406 18.144531 19.359375 32.96875 19.359375 32.96875l112.574219 22.835937 112.578125-22.835937s11.417969-14.824219 19.359375-32.96875c6.914062-15.792969 2.894531-34.246094-9.941406-45.753907zm0 0" fill="#fc5c70"/><path d="m103.296875 254.796875s-11.417969-14.824219-19.359375-32.972656c-6.910156-15.792969-2.890625-34.242188 9.945312-45.75.636719-.574219 1.296876-1.105469 1.972657-1.605469-9.851563-7.246094-23.597657-6.714844-32.878907 1.605469-12.835937 11.507812-16.855468 29.957031-9.945312 45.75 7.941406 18.148437 19.359375 32.972656 19.359375 32.972656l112.578125 22.835937 15.453125-3.136718zm0 0" fill="#f8485e"/><path d="m72.390625 300.464844s-46.074219 36.859375-46.074219 107.371094c0 70.511718 64.101563 104.164062 158.652344 104.164062 94.546875 0 158.648438-33.652344 158.648438-104.164062 0-70.511719-46.070313-107.367188-46.070313-107.367188l-112.578125-22.835938zm0 0" fill="#fc5c70"/><path d="m57.222656 407.835938c0-70.511719 46.074219-107.367188 46.074219-107.367188l97.125-19.703125-15.453125-3.132813-112.578125 22.835938s-46.074219 36.855469-46.074219 107.367188c0 70.511718 64.101563 104.164062 158.652344 104.164062 5.246094 0 10.398438-.109375 15.453125-.316406-86.011719-3.539063-143.199219-37.25-143.199219-103.847656zm0 0" fill="#f8485e"/><path d="m297.546875 254.796875h-225.15625c-12.609375 0-22.835937 10.222656-22.835937 22.835937 0 12.609376 10.222656 22.835938 22.835937 22.835938h225.15625c12.609375 0 22.835937-10.222656 22.835937-22.835938 0-12.613281-10.226562-22.835937-22.835937-22.835937zm0 0" fill="#ffd46a"/><path d="m80.460938 277.628906c0-12.609375 10.222656-22.835937 22.835937-22.835937h-30.90625c-12.609375 0-22.835937 10.226562-22.835937 22.835937 0 12.613282 10.222656 22.835938 22.835937 22.835938h30.90625c-12.613281 0-22.835937-10.222656-22.835937-22.835938zm0 0" fill="#ffa92d"/><g fill="#454f59"><path d="m108.355469 405.773438c-4.265625 0-7.726563-3.457032-7.726563-7.726563v-13.863281c0-4.269532 3.460938-7.726563 7.726563-7.726563 4.269531 0 7.726562 3.457031 7.726562 7.726563v13.863281c0 4.269531-3.457031 7.726563-7.726562 7.726563zm0 0"/><path d="m261.578125 405.773438c-4.265625 0-7.726563-3.457032-7.726563-7.726563v-13.863281c0-4.269532 3.460938-7.726563 7.726563-7.726563 4.269531 0 7.726563 3.457031 7.726563 7.726563v13.863281c0 4.269531-3.457032 7.726563-7.726563 7.726563zm0 0"/><path d="m184.96875 413.175781c-9.601562 0-18.613281-4.011719-24.726562-11.007812-2.808594-3.214844-2.480469-8.09375.730468-10.902344 3.214844-2.808594 8.09375-2.480469 10.902344.730469 3.179688 3.640625 7.953125 5.726562 13.09375 5.726562s9.910156-2.085937 13.089844-5.726562c2.808594-3.210938 7.691406-3.539063 10.902344-.730469 3.214843 2.808594 3.542968 7.691406.734374 10.902344-6.117187 6.996093-15.128906 11.007812-24.726562 11.007812zm0 0"/></g></svg>