<svg height="16px" viewBox="-23 0 512 512" width="16px" xmlns="http://www.w3.org/2000/svg"><path d="m464.621094 258.324219-52.035156-131.121094h-.003907c-.765625-1.925781-2.289062-3.550781-4.371093-4.375-4.007813-1.589844-8.542969.367187-10.132813 4.375l-52.03125 131.121094c-1.589844 4.007812.367187 8.542969 4.375 10.132812.945313.375 1.917969.554688 2.878906.554688 3.105469 0 6.039063-1.867188 7.253907-4.929688l44.78125-112.839843 44.777343 112.839843c1.214844 3.0625 4.148438 4.929688 7.257813 4.929688.957031 0 1.929687-.179688 2.875-.554688 4.003906-1.589843 5.964844-6.125 4.375-10.132812zm0 0" fill="#c9d2e3"/><path d="m457.367188 253.398438h-104.066407c-4.308593 0-7.804687 3.492187-7.804687 7.804687v18.730469c0 27.257812 22.175781 49.433594 49.429687 49.433594h20.8125c27.257813 0 49.433594-22.175782 49.433594-49.433594v-18.730469c0-4.308594-3.496094-7.804687-7.804687-7.804687zm0 0" fill="#ffd664"/><path d="m457.367188 253.398438h-26.019532c4.3125 0 7.808594 3.492187 7.808594 7.804687v18.730469c0 26.382812-20.78125 48.003906-46.832031 49.363281.863281.046875 1.730469.070313 2.601562.070313h20.816407c27.253906 0 49.429687-22.175782 49.429687-49.433594v-18.730469c0-4.308594-3.496094-7.804687-7.804687-7.804687zm0 0" fill="#f9c646"/><path d="m119.125 258.324219-52.03125-131.121094c-.003906 0-.003906 0-.007812 0-.765626-1.925781-2.285157-3.550781-4.367188-4.375-4.007812-1.589844-8.542969.367187-10.132812 4.375l-52.035157 131.121094c-1.589843 4.007812.371094 8.542969 4.378907 10.132812.945312.375 1.917968.554688 2.875.554688 3.105468 0 6.042968-1.867188 7.257812-4.929688l44.777344-112.839843 44.777344 112.839843c1.214843 3.0625 4.152343 4.929688 7.257812 4.929688.957031 0 1.933594-.179688 2.878906-.554688 4.003906-1.589843 5.960938-6.125 4.371094-10.132812zm0 0" fill="#c9d2e3"/><path d="m111.871094 253.398438h-104.0625c-4.3125 0-7.80468775 3.492187-7.80468775 7.804687v18.730469c0 27.257812 22.17187475 49.433594 49.42968775 49.433594h20.8125c27.257812 0 49.429687-22.175782 49.429687-49.433594v-18.730469c0-4.308594-3.492187-7.804687-7.804687-7.804687zm0 0" fill="#ffd664"/><path d="m111.871094 253.398438h-26.015625c4.3125 0 7.804687 3.492187 7.804687 7.804687v18.730469c0 26.382812-20.777344 48.003906-46.828125 49.363281.863281.046875 1.730469.070313 2.601563.070313h20.8125c27.257812 0 49.429687-22.175782 49.429687-49.433594v-18.730469c0-4.308594-3.492187-7.804687-7.804687-7.804687zm0 0" fill="#f9c646"/><path d="m7.804688 119.675781c0 5.746094 4.660156 10.40625 10.40625 10.40625h67.640624c4.417969 0 8.652344-1.753906 11.773438-4.878906l44.035156-44.03125h90.925782v-32.261719h-97.824219c-4.414063 0-8.648438 1.753906-11.769531 4.878906l-44.035157 44.03125h-60.746093c-5.746094 0-10.40625 4.660157-10.40625 10.40625zm0 0" fill="#636363"/><path d="m457.367188 119.675781c0 5.746094-4.660157 10.40625-10.40625 10.40625h-67.644532c-4.414062 0-8.648437-1.753906-11.773437-4.878906l-44.03125-44.03125h-90.925781v-32.261719h97.820312c4.417969 0 8.652344 1.753906 11.773438 4.878906l44.035156 44.03125h60.746094c5.746093 0 10.40625 4.660157 10.40625 10.410157zm0 0" fill="#636363"/><path d="m251.316406 416.261719h-37.460937v-405.855469c-.003907-5.746094 4.65625-10.40625 10.40625-10.40625h16.648437c5.746094 0 10.40625 4.660156 10.40625 10.40625zm0 0" fill="#c9d2e3"/><path d="m236.75 0v64.519531h-22.894531v44.523438c5.839843 2.164062 12.148437 3.347656 18.730469 3.347656 1.402343 0 2.789062-.066406 4.164062-.171875v276.984375c0 5.746094-4.660156 10.40625-10.40625 10.40625h-12.488281v16.648437h37.460937v-405.851562c0-5.746094-4.65625-10.40625-10.40625-10.40625zm0 0" fill="#adbbd5"/><path d="m187.019531 48.910156c-1.492187 4.945313-2.304687 10.183594-2.304687 15.609375 0 .699219.015625 1.390625.042968 2.082031h-47.113281c-2.757812 0-5.40625 1.097657-7.355469 3.046876l-40.988281 40.988281c-3.121093 3.121093-7.355469 4.875-11.769531 4.875h-69.726562v4.164062c0 5.746094 4.660156 10.40625 10.40625 10.40625h67.640624c4.417969 0 8.652344-1.753906 11.773438-4.875l44.035156-44.035156h90.925782v-32.261719zm0 0" fill="#494949"/><path d="m278.152344 48.910156c1.492187 4.945313 2.304687 10.183594 2.304687 15.609375 0 .699219-.015625 1.390625-.042969 2.082031h47.109376c2.761718 0 5.40625 1.097657 7.359374 3.046876l40.984376 40.988281c3.125 3.121093 7.359374 4.875 11.773437 4.875h69.726563v4.164062c0 5.746094-4.660157 10.40625-10.40625 10.40625h-67.644532c-4.414062 0-8.648437-1.753906-11.773437-4.875l-44.03125-44.035156h-90.925781v-32.261719zm0 0" fill="#494949"/><path d="m265.886719 64.519531c0 18.390625-14.910157 33.300781-33.300781 33.300781-18.390626 0-33.300782-14.910156-33.300782-33.300781s14.910156-33.300781 33.300782-33.300781c18.390624 0 33.300781 14.910156 33.300781 33.300781zm0 0" fill="#ffd664"/><path d="m248.035156 35.023438c2.425782 4.617187 3.800782 9.871093 3.800782 15.449218 0 18.390625-14.90625 33.300782-33.300782 33.300782-5.578125 0-10.828125-1.378907-15.449218-3.800782 5.570312 10.609375 16.683593 17.847656 29.5 17.847656 18.390624 0 33.300781-14.90625 33.300781-33.300781 0-12.8125-7.242188-23.929687-17.851563-29.496093zm0 0" fill="#f9c646"/><path d="m312.714844 464.128906h-160.257813v-27.054687c0-11.496094 9.316407-20.8125 20.8125-20.8125h118.632813c11.496094 0 20.8125 9.316406 20.8125 20.8125zm0 0" fill="#ffd664"/><path d="m291.902344 416.261719h-17.691406c11.496093 0 20.8125 9.316406 20.8125 20.8125v27.054687h17.691406v-27.054687c0-11.496094-9.316406-20.8125-20.8125-20.8125zm0 0" fill="#f9c646"/><path d="m328.324219 512h-192.519531c-5.746094 0-10.40625-4.660156-10.40625-10.40625v-16.648438c0-11.496093 9.316406-20.8125 20.8125-20.8125h171.707031c11.496093 0 20.8125 9.316407 20.8125 20.8125v16.648438c0 5.746094-4.65625 10.40625-10.40625 10.40625zm0 0" fill="#636363"/><path d="m317.917969 464.128906h-20.8125c11.496093 0 20.8125 9.320313 20.8125 20.8125 0 4.597656-3.726563 8.328125-8.324219 8.328125h-184.195312v8.324219c0 5.746094 4.660156 10.40625 10.40625 10.40625h192.519531c5.75 0 10.40625-4.660156 10.40625-10.40625v-16.652344c0-11.492187-9.316407-20.8125-20.8125-20.8125zm0 0" fill="#494949"/></svg>