<?xml version="1.0" encoding="iso-8859-1"?>
<!-- Generator: Adobe Illustrator 19.0.0, SVG Export Plug-In . SVG Version: 6.00 Build 0)  -->
<svg version="1.1" height="16px" id="Capa_1" xmlns="http://www.w3.org/2000/svg" xmlns:xlink="http://www.w3.org/1999/xlink" x="0px" y="0px"
	 viewBox="0 0 382 382" style="enable-background:new 0 0 382 382;" xml:space="preserve">
<path style="fill:#A4F4C4;" d="M62.4,241.6h-12c-13.2,0-24-10.8-24-24v-56c0-13.2,10.8-24,24-24l0.4-11.2l0,0c6.8,0,12,5.2,12,12
	L62.4,241.6z"/>
<path style="fill:#06A18C;" d="M278.4,241.6h12c13.2,0,24-10.8,24-24v-56c0-13.2-10.8-24-24-24l0,0h-12V241.6z"/>
<path style="fill:#8FE5B5;" d="M211.2,40.4L198,36c-8.8-2-18-3.2-27.2-3.2c-9.2,0-18.4,1.2-27.2,3.2l-13.2,4
	c-32.8,12.4-55.2,39.6-55.2,71.2c0,0.4,191.6,0,191.6,0C266.4,80,243.6,52.8,211.2,40.4z"/>
<path style="fill:#444B54;" d="M143.6,48c-3.2,0-6-1.2-8.4-3.6l-24-24c-4.8-4.8-4.8-12.4,0-16.8c4.8-4.8,12.4-4.8,16.8,0l24,24
	c4.8,4.8,4.8,12.4,0,16.8C149.6,46.8,146.4,48,143.6,48z"/>
<g style="opacity:0.5;">
	<path style="fill:#06A18C;" d="M206,28l-8,8l0,0c-8.8-2-18-3.2-27.2-3.2c-6.8,0-13.6,0.8-20,1.6c57.6,1.6,75.6,45.6,75.6,76.8
		c0,0,34.8,0,39.6,0c0.4,0,0.4,0,0.4,0c0-2,0-4-0.4-6c0-2-0.4-4-0.8-5.6c-0.8-3.6-1.6-7.6-3.2-11.2c-2-5.2-4.8-10.4-8-15.2
		c-6.4-9.6-15.6-18-26-24.8c-5.2-3.2-11.2-6-17.2-8.4L206,28z"/>
</g>
<path style="fill:#8FE5B5;" d="M140.8,33.2l-18-0.4C125.6,32.8,137.6,32.8,140.8,33.2z"/>
<g>
	<ellipse style="fill:#FFFFFF;" cx="142.4" cy="77.6" rx="11.2" ry="11.2"/>
	<ellipse style="fill:#FFFFFF;" cx="198.8" cy="77.6" rx="11.2" ry="11.2"/>
</g>
<path style="fill:#8FE5B5;" d="M74.8,257.6c0,18.4,15.2,33.6,33.6,33.6v59.2c0,10.8,10,19.6,22.4,19.6s22.4-8.8,22.4-19.6v-59.2h34
	v59.2c0,10.8,10,19.6,22.4,19.6s22.4-8.8,22.4-19.6v-59.2l0,0c18.8,0,34-15.2,34-33.6V138.8c0-6.8-5.2-12-12-12H86.8
	c-6.8,0-12,5.2-12,12V257.6L74.8,257.6z M108.4,291.2v59.2c0,10.8,10,19.6,22.4,19.6"/>
<g style="opacity:0.5;">
	<path style="fill:#06A18C;" d="M108.4,331.6v18.8c0,10.8,10,19.6,22.4,19.6s22.4-8.8,22.4-19.6V292
		C138,308,122.8,321.2,108.4,331.6z"/>
	<path style="fill:#06A18C;" d="M252.4,126.8h-26l0,0c0,50-16.8,98.8-48.4,137.6c-8,10-16,18.8-23.6,26.8h33.2v59.2
		c0,3.2,0.8,6.4,2.4,9.2l0,0l0,0c0.8,1.6,2,2.8,3.2,4.4c0,0,0,0,0.4,0.4c1.2,1.2,2.8,2.4,4.4,3.2c0,0,0.4,0,0.4,0.4
		c0.8,0.4,1.6,0.8,2,1.2h0.4c0.8,0.4,1.6,0.8,2.8,0.8h0.4c0.8,0,1.6,0.4,2.4,0.4c0.4,0,0.4,0,0.8,0c0.8,0,2,0,2.8,0
		c12.4,0,22.4-8.8,22.4-19.6v-59.6l0,0c18.8,0,34-15.2,34-33.6V138.8c0-6.8-5.2-12-12-12H252.4z"/>
</g>
<g>
	<path style="fill:#444B54;" d="M210,382c-19.2,0-34.4-14.4-34.4-31.6v-47.2h-10v47.2c0,17.6-15.6,31.6-34.4,31.6
		c-6.8,0-12-5.2-12-12s5.2-12,12-12c5.6,0,10.4-3.6,10.4-7.6v-59.2c0-6.8,5.2-12,12-12h34c6.8,0,12,5.2,12,12v59.2
		c0,4,4.8,7.6,10.4,7.6s10.4-3.6,10.4-7.6v-59.2c0-6.8,5.2-12,12-12c12,0,22-9.6,22-21.6v-16l0,0v-64c0-6.8,5.2-12,12-12l0,0
		c6.8,0,12,5.2,12,12v52h13.2c5.6,0,10.4-3.6,10.4-7.6v-60.4c0-3.2-1.2-6.4-3.6-8.4c-2.4-2.4-5.2-3.6-8.4-3.6l0,0
		c-6.8,0-12-5.2-12-12s5.2-12,12-12l0,0c9.6,0,18.8,3.6,25.6,10.4c6.8,6.8,10.4,16,10.4,25.6V222c0,17.6-15.6,31.6-34.4,31.6h-13.2
		v4c0,21.2-14.4,38.8-34,44v48.8C244.4,367.6,228.8,382,210,382z M108.4,303.2L108.4,303.2c-25.2,0-45.6-20.4-45.6-45.6L62.4,178
		c0-6.8,5.2-12,12-12l0,0c6.8,0,12,5.2,12,12l0.4,79.6c0,12,9.6,21.6,21.6,21.6c6.8,0,12,5.6,12,12
		C120.4,298,115.2,303.2,108.4,303.2z M265.2,112c-5.6,0-10.8-4-11.6-10c-4-21.6-21.2-40.8-46.4-50.4l-12.4-4c-15.6-3.6-32-3.6-48,0
		l-12.8,4C108.8,61.2,91.6,80,87.6,102c-1.2,6.4-7.6,10.8-14,9.6s-10.8-7.6-9.6-14c5.6-30,28.8-55.6,61.6-68.4c0.4,0,0.4,0,0.8-0.4
		l13.2-4c0.4,0,0.4,0,0.8-0.4c19.6-4.8,40.4-4.8,60,0c0.4,0,0.4,0,0.8,0.4l13.2,4.4c0.4,0,0.4,0,0.8,0.4
		c33.2,12.8,56,38.4,61.6,68.8c1.2,6.4-3.2,12.8-9.6,14C266.8,111.6,266,112,265.2,112z"/>
	<path style="fill:#444B54;" d="M198,48c-3.2,0-6-1.2-8.4-3.6c-4.8-4.8-4.8-12.4,0-16.8l24.4-24c4.8-4.8,12.4-4.8,16.8,0
		s4.8,12.4,0,16.8l-24.4,24C204,46.8,200.8,48,198,48z"/>
	<path style="fill:#444B54;" d="M294.4,382H130.8c-6.8,0-12-5.2-12-12s5.2-12,12-12h163.6c6.8,0,12,5.2,12,12S301.2,382,294.4,382z"
		/>
	<path style="fill:#444B54;" d="M354.4,382c-0.8,0-1.6,0-2.4-0.4c-0.8,0-1.6-0.4-2.4-0.8s-1.2-0.8-2-1.2c-0.8-0.4-1.2-0.8-2-1.6
		c-2.4-2.4-3.6-5.2-3.6-8.4c0-0.8,0-1.6,0.4-2.4c0-0.8,0.4-1.6,0.8-2.4s0.8-1.2,1.2-2c0.4-0.8,0.8-1.2,1.6-2s1.2-1.2,2-1.6
		s1.2-0.8,2-1.2c0.8-0.4,1.6-0.4,2.4-0.8c1.6-0.4,3.2-0.4,4.8,0c0.8,0,1.6,0.4,2.4,0.8s1.6,0.8,2,1.2c0.8,0.4,1.2,0.8,2,1.6
		c0.4,0.4,1.2,1.2,1.6,2s0.8,1.2,1.2,2c0.4,0.8,0.4,1.6,0.8,2.4c0,0.8,0.4,1.6,0.4,2.4c0,3.2-1.2,6.4-3.6,8.4
		c-0.4,0.4-1.2,1.2-2,1.6s-1.2,0.8-2,1.2c-0.8,0.4-1.6,0.4-2.4,0.8C356,382,355.2,382,354.4,382z"/>
	<path style="fill:#444B54;" d="M74.4,254h-24c-20,0-36-16-36-36v-56c0-20,16-36,36-36c6.8,0,12,5.2,12,12s-5.2,12-12,12
		s-12,5.2-12,12v56c0,6.8,5.2,12,12,12h24c6.8,0,12,5.2,12,12S81.2,254,74.4,254z"/>
	<path style="fill:#444B54;" d="M130.8,382c-19.2,0-34.4-14.4-34.4-31.6v-59.2c0-6.8,5.2-12,12-12s12,5.2,12,12v59.2
		c0,4,4.8,7.6,10.4,7.6c6.8,0,12,5.2,12,12S137.6,382,130.8,382z"/>
</g>
<g>
</g>
<g>
</g>
<g>
</g>
<g>
</g>
<g>
</g>
<g>
</g>
<g>
</g>
<g>
</g>
<g>
</g>
<g>
</g>
<g>
</g>
<g>
</g>
<g>
</g>
<g>
</g>
<g>
</g>
</svg>
