<?xml version="1.0" encoding="iso-8859-1"?>
<!-- Generator: Adobe Illustrator 19.0.0, SVG Export Plug-In . SVG Version: 6.00 Build 0)  -->
<svg xmlns="http://www.w3.org/2000/svg" xmlns:xlink="http://www.w3.org/1999/xlink" version="1.1" id="Capa_1" x="0px" y="0px" viewBox="0 0 512 512" style="enable-background:new 0 0 512 512;" xml:space="preserve" width="512" height="512">
<g>
	<path style="fill:#A0AD2F;" d="M136.125,0c0,66.274,53.726,120,120,120C256.125,53.726,202.4,0,136.125,0z"/>
	<path style="fill:#63842C;" d="M256.125,120c66.274,0,120-53.726,120-120C309.851,0,256.125,53.726,256.125,120z"/>
	<path style="fill:#41388D;" d="M452,316c0-17.761-6.08-34.467-17.281-47.887c2.991-17.225-0.097-34.732-8.978-50.113   c-8.88-15.382-22.498-26.81-38.909-32.831c-6.022-16.412-17.45-30.029-32.832-38.91c-11.383-6.572-24.32-10.046-37.411-10.046   c-4.257,0-8.5,0.361-12.689,1.078C290.478,126.083,273.767,120,256,120l-60,196l60,196c17.767,0,34.478-6.083,47.9-17.291   c4.188,0.717,8.43,1.078,12.687,1.079c13.093,0,26.031-3.475,37.413-10.047c15.382-8.88,26.81-22.498,32.832-38.91   c16.411-6.021,30.029-17.449,38.909-32.831c8.881-15.381,11.969-32.889,8.978-50.112C445.92,350.467,452,333.762,452,316z"/>
	<path style="fill:#6E259B;" d="M208.1,137.291c-4.188-0.717-8.431-1.079-12.688-1.079c-13.092,0-26.029,3.475-37.413,10.047   c-15.382,8.881-26.81,22.498-32.832,38.91C108.757,191.19,95.14,202.618,86.259,218c-8.881,15.381-11.969,32.889-8.978,50.113   C66.08,281.533,60,298.239,60,316c0,17.762,6.08,34.467,17.281,47.888c-2.991,17.224,0.097,34.731,8.978,50.112   c8.88,15.382,22.498,26.81,38.909,32.831c6.022,16.412,17.45,30.03,32.831,38.909c11.384,6.573,24.321,10.048,37.414,10.048   c4.256,0,8.499-0.362,12.687-1.079C221.522,505.917,238.233,512,256,512V120C238.233,120,221.522,126.083,208.1,137.291z"/>
	<polygon style="fill:#20162F;" points="271,407 256,407 246,422 256,437 271,437  "/>
	<rect x="241" y="407" style="fill:#30275E;" width="15" height="30"/>
	<rect x="301" y="347" style="fill:#20162F;" width="30" height="30"/>
	<rect x="181" y="255" style="fill:#30275E;" width="30" height="30"/>
</g>















</svg>
