<?xml version="1.0" encoding="iso-8859-1"?>
<!-- Generator: Adobe Illustrator 18.0.0, SVG Export Plug-In . SVG Version: 6.00 Build 0)  -->
<!DOCTYPE svg PUBLIC "-//W3C//DTD SVG 1.1//EN" "http://www.w3.org/Graphics/SVG/1.1/DTD/svg11.dtd">
<svg height="16px" width="16px" version="1.1" id="Capa_1" xmlns="http://www.w3.org/2000/svg" xmlns:xlink="http://www.w3.org/1999/xlink" x="0px" y="0px"
	 viewBox="0 0 336.836 336.836" style="enable-background:new 0 0 336.836 336.836;" xml:space="preserve">
<g>
	<g>
		<path d="M49.959,310.364c14.293,0,25.922-11.629,25.922-25.922S64.252,258.52,49.959,258.52
			c-14.295,0-25.925,11.629-25.925,25.922S35.664,310.364,49.959,310.364z M49.959,273.52c6.022,0,10.922,4.899,10.922,10.922
			c0,6.022-4.899,10.922-10.922,10.922c-6.024,0-10.925-4.899-10.925-10.922C39.034,278.419,43.934,273.52,49.959,273.52z"/>
		<path d="M132.672,310.364c14.294,0,25.923-11.629,25.923-25.922s-11.629-25.922-25.923-25.922
			c-14.294,0-25.924,11.629-25.924,25.922S118.378,310.364,132.672,310.364z M132.672,273.52c6.022,0,10.923,4.899,10.923,10.922
			c0,6.022-4.9,10.922-10.923,10.922c-6.023,0-10.924-4.899-10.924-10.922C121.748,278.419,126.648,273.52,132.672,273.52z"/>
		<path d="M335.589,311.579L274.25,6.022c-0.392-1.95-1.542-3.665-3.198-4.767c-1.655-1.103-3.679-1.498-5.632-1.11l-81.096,16.281
			c-1.038,0.209-1.981,0.625-2.799,1.192c-0.034-4.112-3.376-7.437-7.497-7.437H8.6c-4.143,0-7.5,3.357-7.5,7.5v311.652
			c0,4.143,3.357,7.5,7.5,7.5h165.428c4.143,0,7.5-3.357,7.5-7.5V40.604l58.258,290.207c0.716,3.563,3.846,6.024,7.346,6.024
			c0.489,0,0.986-0.048,1.484-0.147l81.096-16.279c1.95-0.392,3.665-1.542,4.767-3.198
			C335.581,315.555,335.98,313.529,335.589,311.579z M83.814,321.835H16.1V135.01h67.714V321.835z M83.814,120.01H16.1V97.217
			h67.714V120.01z M83.814,82.217H16.1V25.182h67.714V82.217z M166.528,321.835H98.814V135.01h67.714V321.835z M166.528,120.01
			H98.814V97.217h67.714V120.01z M166.528,82.217H98.814V25.182h67.714V82.217z M194.63,29.657l66.39-13.328l11.226,55.92
			l-66.39,13.326L194.63,29.657z M208.807,100.282l66.39-13.327l4.485,22.347l-66.389,13.327L208.807,100.282z M253.016,320.505
			l-36.77-183.17l66.39-13.327l36.77,183.17L253.016,320.505z"/>
		<path d="M273.751,251.764c-6.789,1.362-12.642,5.287-16.479,11.052c-3.837,5.764-5.2,12.677-3.837,19.466
			c2.423,12.066,13.104,20.824,25.397,20.824c1.711,0,3.434-0.171,5.123-0.51c14.014-2.815,23.126-16.507,20.313-30.52
			c-2.423-12.065-13.104-20.822-25.397-20.822C277.161,251.255,275.438,251.425,273.751,251.764z M289.561,275.03
			c1.186,5.904-2.654,11.674-8.559,12.859c-0.718,0.145-1.448,0.217-2.17,0.217c-5.174,0-9.67-3.692-10.69-8.777
			c-0.574-2.86-0.001-5.772,1.616-8.201c1.617-2.429,4.083-4.082,6.943-4.656c0.718-0.145,1.447-0.217,2.169-0.217
			C284.045,266.255,288.541,269.945,289.561,275.03z"/>
	</g>
</g>
<g>
</g>
<g>
</g>
<g>
</g>
<g>
</g>
<g>
</g>
<g>
</g>
<g>
</g>
<g>
</g>
<g>
</g>
<g>
</g>
<g>
</g>
<g>
</g>
<g>
</g>
<g>
</g>
<g>
</g>
</svg>
