<svg height="16px" viewBox="0 0 512 512" width="16px" xmlns="http://www.w3.org/2000/svg"><path d="m437 362-40 75 40 75h75v-150zm0 0" fill="#636363"/><path d="m256 362-40 75 40 75h181v-150zm0 0" fill="#242424"/><path d="m362 422h30v30h-30zm0 0" fill="#18e0ff"/><path d="m75 362h-75v150h75l40-75zm0 0" fill="#828282"/><path d="m75 362h181v150h-181zm0 0" fill="#434343"/><path d="m256 332-50-162 50-170h65v170h96.589844zm0 0" fill="#ff3cad"/><path d="m94.410156 170h96.589844v-170h65v332zm0 0" fill="#fe6192"/></svg>