<svg height="16px" viewBox="-4 0 512 512.00033" width="16px" xmlns="http://www.w3.org/2000/svg" xmlns:xlink="http://www.w3.org/1999/xlink"><linearGradient id="a"><stop offset="0" stop-color="#ffe548"/><stop offset=".2472" stop-color="#ffe042"/><stop offset=".5621" stop-color="#ffd133"/><stop offset=".9123" stop-color="#ffb919"/><stop offset="1" stop-color="#ffb211"/></linearGradient><linearGradient id="b" gradientTransform="matrix(1.000709 .0804141 -.0804141 1.000709 3.076695 -15.605942)" gradientUnits="userSpaceOnUse" x1="330.4178" x2="205.2642" xlink:href="#a" y1="52.663" y2="305.8142"/><linearGradient id="c" gradientTransform="matrix(1.000709 .0804141 -.0804141 1.000709 3.076695 -15.605942)" gradientUnits="userSpaceOnUse" x1="216.3921" x2="366.7042" xlink:href="#a" y1="20.606" y2="242.2001"/><linearGradient id="d"><stop offset="0" stop-color="#ffb211" stop-opacity="0"/><stop offset=".1722" stop-color="#ffad13" stop-opacity=".172549"/><stop offset=".383" stop-color="#ff9e1a" stop-opacity=".384314"/><stop offset=".614" stop-color="#ff8525" stop-opacity=".615686"/><stop offset=".8577" stop-color="#ff6334" stop-opacity=".858824"/><stop offset="1" stop-color="#ff4b3e"/></linearGradient><linearGradient id="e" gradientTransform="matrix(1.000709 .0804141 -.0804141 1.000709 3.076695 -15.605942)" gradientUnits="userSpaceOnUse" x1="196.7265" x2="239.7099" xlink:href="#d" y1="141.0116" y2="-2.7143"/><linearGradient id="f" gradientTransform="matrix(1.000709 .0804141 -.0804141 1.000709 3.076695 -15.605942)" gradientUnits="userSpaceOnUse" x1="192.8709" x2="212.2156" xlink:href="#d" y1="126.4995" y2="26.6392"/><linearGradient id="g" gradientTransform="matrix(1.000709 .0804141 -.0804141 1.000709 3.076695 -15.605942)" gradientUnits="userSpaceOnUse" x1="386.3866" x2="332.0798" xlink:href="#d" y1="165.3457" y2="35.6579"/><linearGradient id="h" gradientTransform="matrix(1.000709 .0804141 -.0804141 1.000709 3.076695 -15.605942)" gradientUnits="userSpaceOnUse" x1="374.0995" x2="248.1629" xlink:href="#d" y1="162.1582" y2="76.4511"/><linearGradient id="i" gradientTransform="matrix(1.000709 .0804141 -.0804141 1.000709 3.076695 -15.605942)" gradientUnits="userSpaceOnUse" x1="251.7519" x2="351.4688" xlink:href="#d" y1="134.9982" y2="94.948"/><linearGradient id="j"><stop offset="0" stop-color="#ffb211"/><stop offset=".1645" stop-color="#ffac14"/><stop offset=".3888" stop-color="#ff9a1b"/><stop offset=".6475" stop-color="#ff7e28"/><stop offset=".9301" stop-color="#ff5639"/><stop offset="1" stop-color="#ff4b3e"/></linearGradient><linearGradient id="k" gradientTransform="matrix(1.000709 .0804141 -.0804141 1.000709 3.076695 -15.605942)" gradientUnits="userSpaceOnUse" x1="236.3536" x2="389.9764" xlink:href="#j" y1="184.7289" y2="411.2037"/><linearGradient id="l" gradientTransform="matrix(.827432 -.568621 .568621 .827432 -102.932905 189.854438)" gradientUnits="userSpaceOnUse" x1="316.5121" x2="201.9417" y1="266.9984" y2="156.1238"><stop offset="0" stop-color="#ffb211" stop-opacity="0"/><stop offset="1" stop-color="#ff4b3e"/></linearGradient><linearGradient id="m" gradientTransform="matrix(-.558984 .833857 .833857 .558984 -285.635186 107.081406)" gradientUnits="userSpaceOnUse" x1="-14.6816" x2="-121.3597" xlink:href="#a" y1="403.26" y2="619.0405"/><linearGradient id="n" gradientTransform="matrix(-.558984 .833857 .833857 .558984 -285.635186 107.081406)" gradientUnits="userSpaceOnUse" x1="-111.8747" x2="16.2473" xlink:href="#a" y1="375.9359" y2="564.8167"/><linearGradient id="o" gradientTransform="matrix(-.558984 .833857 .833857 .558984 -285.635186 107.081406)" gradientUnits="userSpaceOnUse" x1="-128.6368" x2="-91.999" xlink:href="#d" y1="478.5671" y2="356.0593"/><linearGradient id="p" gradientTransform="matrix(-.558984 .833857 .833857 .558984 -285.635186 107.081406)" gradientUnits="userSpaceOnUse" x1="-131.9233" x2="-115.4345" xlink:href="#d" y1="466.1977" y2="381.0797"/><linearGradient id="q" gradientTransform="matrix(-.558984 .833857 .833857 .558984 -285.635186 107.081406)" gradientUnits="userSpaceOnUse" x1="33.0252" x2="-13.2652" xlink:href="#d" y1="499.308" y2="388.7638"/><linearGradient id="r" gradientTransform="matrix(-.558984 .833857 .833857 .558984 -285.635186 107.081406)" gradientUnits="userSpaceOnUse" x1="22.5512" x2="-84.7943" xlink:href="#d" y1="496.5909" y2="423.5362"/><linearGradient id="s" gradientTransform="matrix(-.558984 .833857 .833857 .558984 -285.635186 107.081406)" gradientUnits="userSpaceOnUse" x1="-81.7353" x2="3.261" xlink:href="#d" y1="473.4415" y2="439.3037"/><linearGradient id="t" gradientTransform="matrix(-.558984 .833857 .833857 .558984 -285.635186 107.081406)" gradientUnits="userSpaceOnUse" x1="-94.8592" x2="36.0858" xlink:href="#j" y1="515.8299" y2="708.8725"/><path d="m448.246094 90.953125-23.191406 13.789063c-2.371094 1.410156-5.167969-1.183594-3.722657-3.453126l6.625-10.40625c1.484375-2.332031-1.484375-4.945312-3.835937-3.382812-2.144532 1.429688-4.972656-.652344-4.042969-2.976562l5.339844-13.351563c.414062-1.035156.066406-2.21875-.863281-2.902344-37.304688-27.515625-83.136719-45.464843-133.617188-49.523437-13.730469-1.101563-27.285156-1.128906-40.578125-.164063-1.457031.105469-2.535156 1.316407-2.421875 2.695313l2.046875 24.753906c.242187 2.914062-4.0625 3.785156-5.152344 1.042969l-9.898437-24.882813c-.445313-1.125-1.667969-1.8125-2.917969-1.632812-71.449219 10.269531-133.613281 49.496094-171.433594 105.582031-1.027343 1.527344-.074219 3.554687 1.824219 3.871094 90.695312 14.988281 165.644531 69.898437 205.777344 143.535156.917968 1.683594 3.363281 1.878906 4.539062.363281 51.375-66.28125 134.128906-108.519531 226.054688-108.835937 1.925781-.007813 3.191406-1.855469 2.417968-3.53125-12.046874-26.0625-28.910156-49.824219-49.597656-70.195313-.878906-.867187-2.285156-1.027344-3.351562-.394531zm0 0" fill="url(#b)"/><path d="m451.164062 77.316406-23.519531 14.855469c-2.40625 1.519531-5.222656-1.242187-3.75-3.675781l6.746094-11.164063c1.515625-2.5-1.476563-5.28125-3.863281-3.597656-2.175782 1.535156-5.027344-.679687-4.074219-3.167969l5.464844-14.304687c.421875-1.109375.078125-2.371094-.859375-3.097657-37.605469-29.257812-83.886719-48.242187-134.925782-52.34375-13.886718-1.113281-27.597656-1.078124-41.046874.011719-1.476563.121094-2.574219 1.421875-2.464844 2.898438l1.957031 26.46875c.230469 3.113281-4.128906 4.0625-5.21875 1.140625l-9.894531-26.574219c-.445313-1.199219-1.679688-1.929687-2.945313-1.730469-72.324219 11.324219-135.394531 53.570313-173.910156 113.734375-1.050781 1.640625-.09375 3.804688 1.824219 4.132813 91.675781 15.609375 167.230468 73.988281 207.480468 152.554687.921876 1.800781 3.394532 2 4.589844.371094 52.28125-71.136719 136.1875-116.703125 229.179688-117.472656 1.945312-.015625 3.234375-2 2.460937-3.789063-12.0625-27.820312-29.011719-53.152344-49.839843-74.84375-.886719-.925781-2.308594-1.089844-3.390626-.40625zm0 0" fill="url(#c)"/><path d="m151.109375 30.804688c-37.355469 20.386718-69.203125 49.960937-92.25 85.964843-1.050781 1.640625-.09375 3.804688 1.824219 4.128907 91.675781 15.609374 167.230468 73.992187 207.480468 152.558593.921876 1.800781 3.394532 2 4.589844.371094 2.421875-3.296875 4.910156-6.535156 7.464844-9.71875 6.925781-104.113281-47.324219-196.722656-129.109375-233.304687zm0 0" fill="url(#e)"/><path d="m268.164062 273.457031c.917969 1.789063 3.382813 2.015625 4.574219.394531.027344-.039062.054688-.078124.085938-.117187 4.050781-5.507813 6.082031-12.261719 5.582031-19.082031-7.039062-96.140625-76.410156-176.484375-169.648438-194.789063-19.285156 16.304688-36.164062 35.453125-49.898437 56.90625-1.050781 1.640625-.054687 3.808594 1.867187 4.136719 91.652344 15.621094 167.195313 73.996094 207.4375 152.550781zm0 0" fill="url(#f)"/><path d="m454.554688 77.722656c-.730469-.761718-1.820313-1-2.789063-.679687-3.605469 2.238281-8.179687 5.089843-13.695313 8.542969l-10.425781 6.585937c-.113281.070313-.226562.125-.339843.175781-5.207032 3.277344-10.980469 6.925782-17.308594 10.9375-31.347656 19.878906-122.71875 95.832032-140.058594 171.558594 1 .242188 2.121094-.070312 2.816406-1.015625 52.28125-71.136719 136.191406-116.703125 229.179688-117.472656 1.945312-.015625 3.234375-2 2.460937-3.789063-12.0625-27.820312-29.011719-53.152344-49.839843-74.84375zm0 0" fill="url(#g)"/><path d="m454.554688 77.722656c-.886719-.925781-2.308594-1.089844-3.390626-.40625l-23.519531 14.855469c-2.40625 1.519531-5.222656-1.242187-3.75-3.675781l6.746094-11.164063c1.515625-2.5-1.472656-5.28125-3.863281-3.597656-2.175782 1.535156-5.027344-.679687-4.074219-3.167969l5.464844-14.304687c.421875-1.109375.078125-2.371094-.859375-3.097657-15.25-11.863281-31.925782-22.039062-49.765625-30.214843-57.238281 51.398437-98.839844 139.078125-107.046875 241.210937-.285156 3.5625-.511719 7.109375-.714844 10.648438 1.039062.316406 2.242188.011718 2.972656-.980469 52.28125-71.136719 136.191406-116.703125 229.179688-117.476563 1.945312-.015624 3.234375-1.996093 2.460937-3.785156-12.0625-27.820312-29.011719-53.152344-49.839843-74.84375zm0 0" fill="url(#h)"/><path d="m277.132812.0546875c-8.6875-.1757815-17.296874.0898435-25.796874.7773435-1.476563.121094-2.574219 1.421875-2.464844 2.898438l1.957031 26.46875c.230469 3.113281-4.128906 4.0625-5.21875 1.140625l-9.894531-26.574219c-.445313-1.199219-1.679688-1.929687-2.945313-1.730469-72.324219 11.324219-135.394531 53.570313-173.910156 113.734375-1.050781 1.640625-.09375 3.804688 1.828125 4.132813 91.671875 15.609375 167.230469 73.988281 207.480469 152.554687.359375.703125.953125 1.152344 1.613281 1.355469 9.515625-118.4375 8.316406-231.414062 7.351562-274.7578125zm0 0" fill="url(#i)"/><path d="m302.40625 458.832031c.492188 1.417969-1.5625 2.246094-2.183594.878907-.03125-.066407-.0625-.132813-.09375-.199219-3.042968-6.640625-5.730468-13.433594-8.355468-20.261719-1.261719-3.429688-2.515626-6.867188-3.664063-10.335938l-1.75-5.203124-1.652344-5.230469c-2.210937-6.976563-4.089843-14.054688-5.90625-21.148438-3.644531-14.1875-6.320312-28.613281-8.527343-43.097656-1.148438-7.242187-1.886719-14.539063-2.695313-21.824219l-.914063-10.957031c-.304687-3.652344-.433593-7.316406-.65625-10.972656l-.273437-5.492188-.125-5.496093c-.054687-3.664063-.214844-7.328126-.1875-10.992188l.128906-10.992188.035157-2.746093.113281-2.746094.242187-5.492187c.246094-7.320313.898438-14.621094 1.484375-21.917969.300781-3.648438.78125-7.28125 1.179688-10.917969.457031-3.632812.808593-7.273438 1.410156-10.886719 3.109375-21.828125 7.679687-43.4375 13.855469-64.53125.421875-1.441406 2.574218-.910156 2.296875.566407-4.089844 21.503906-7.320313 43.085937-9.453125 64.757812-.429688 3.585938-.609375 7.199219-.890625 10.796875-.25 3.601563-.625 7.195313-.796875 10.800781-.3125 7.210938-.832032 14.40625-.890625 21.621094-.4375 14.417969-.203125 28.847656.5 43.242188.617187 14.40625 1.949219 28.769531 3.722656 43.078124 1.710937 14.324219 4.171875 28.542969 6.992187 42.707032 1.433594 7.074218 3.070313 14.109375 4.785157 21.128906l1.296875 5.265625 1.398437 5.238281c.90625 3.503906 1.953125 6.960938 2.941407 10.445313 2.054687 7.011719 4.242187 13.992187 6.632812 20.914062zm0 0" fill="url(#k)"/><path d="m281.320312 175.964844c-14.003906-2.578125-28.351562-6.285156-42.496093-8.0625-1.398438-.175782-2.796875-.335938-4.191407-.46875-21.183593-2.050782-42.53125-.664063-63.277343 3.753906 40.960937 25.769531 74.355469 61.125 96.828125 102.355469.171875.316406.410156.5625.671875.773437.003906.003906.007812.007813.011719.011719.136718.105469.273437.199219.425781.277344.011719.007812.023437.011719.035156.019531.191406.09375.390625.167969.59375.21875.09375.023438.1875.042969.285156.058594.105469.015625.210938.019531.316407.023437.070312 0 .140624-.003906.214843-.007812.167969-.007813.328125-.03125.496094-.074219.070313-.015625.144531-.035156.214844-.058594.480469-.160156.929687-.4375 1.269531-.875 26.488281-34.175781 61.332031-61.929687 101.460938-80.871094-30.953126-5.691406-61.90625-11.382812-92.859376-17.074218zm0 0" fill="url(#l)"/><path d="m14.140625 414 21.492187-8.179688c2.199219-.835937 1.949219-4.078124-.335937-4.3125l-10.457031-1.09375c-2.339844-.242187-2.515625-3.609374-.226563-4.351562 2.089844-.675781 2.199219-3.667969.15625-4.277344l-11.746093-3.503906c-.910157-.273438-1.515626-1.132812-1.480469-2.117188 1.394531-39.484374 13.691406-79.597656 37.726562-115.445312 6.535157-9.753906 13.699219-18.820312 21.382813-27.183594.84375-.917968 2.222656-.996094 3.085937-.1875l15.441407 14.480469c1.816406 1.703125 4.679687-.710937 3.429687-2.886719l-11.375-19.792968c-.511719-.894532-.324219-2.074219.457031-2.8125 44.714844-42.265626 103.839844-62.992188 161.320313-58.53125 1.566406.121093 2.414062 1.835937 1.617187 3.269531-38.039062 68.496093-41.082031 147.628906-13.179687 213.4375.636719 1.503906-.527344 3.238281-2.164063 3.222656-71.46875-.8125-143.515625 32.0625-192.429687 93.273437-1.023438 1.28125-2.925781 1.144532-3.636719-.257812-11.019531-21.847656-17.949219-45.699219-20.589844-70.300781-.113281-1.050781.523438-2.074219 1.511719-2.449219zm0 0" fill="url(#m)"/><path d="m3.488281 408.722656 22.382813-7.832031c2.289062-.800781 1.9375-4.144531-.46875-4.453125l-11.027344-1.40625c-2.472656-.316406-2.75-3.785156-.359375-4.488281 2.179687-.636719 2.210937-3.714844.046875-4.398438l-12.445312-3.929687c-.964844-.304688-1.6250005-1.203125-1.617188-2.214844.390625-40.609375 12.234375-81.566406 36.535156-117.820312 6.613282-9.863282 13.902344-18.996094 21.753906-27.398438.863282-.921875 2.3125-.964844 3.238282-.109375l16.636718 15.328125c1.957032 1.800781 4.902344-.605469 3.527344-2.882812l-12.5-20.679688c-.566406-.9375-.398437-2.144531.402344-2.886719 45.878906-42.292969 107.5-62.019531 168.074219-55.863281 1.652343.167969 2.589843 1.953125 1.792969 3.410156-38.144532 69.476563-39.195313 150.855469-8.0625 219.351563.714843 1.570312-.460938 3.324219-2.183594 3.261719-75.191406-2.78125-150.070313 29.101562-199.847656 90.78125-1.042969 1.292968-3.050782 1.101562-3.835938-.363282-12.183594-22.789062-20.121094-47.527344-23.566406-72.925781-.148438-1.082031.492187-2.117187 1.523437-2.480469zm0 0" fill="url(#n)"/><path d="m131.402344 183.742188c33.398437-14.144532 70.019531-19.738282 106.265625-16.050782 1.652343.164063 2.589843 1.953125 1.792969 3.40625-38.144532 69.476563-39.195313 150.855469-8.0625 219.355469.714843 1.566406-.460938 3.320313-2.183594 3.257813-3.480469-.128907-6.964844-.183594-10.441406-.164063-73.1875-50.535156-106.277344-135.820313-87.371094-209.804687zm0 0" fill="url(#o)"/><path d="m231.398438 390.453125c.710937 1.558594-.449219 3.320313-2.160157 3.257813-.039062 0-.082031-.003907-.121093-.003907-5.828126-.210937-11.410157-2.4375-15.703126-6.382812-60.457031-55.632813-77.351562-144.515625-40.175781-216.46875 21.101563-4.238281 42.828125-5.363281 64.429688-3.167969 1.652343.167969 2.574219 1.984375 1.773437 3.441406-38.128906 69.46875-39.171875 150.832032-8.042968 219.324219zm0 0" fill="url(#p)"/><path d="m1.964844 411.203125c-.125-.890625.296875-1.746094 1.023437-2.222656 3.402344-1.21875 7.730469-2.765625 12.960938-4.617188l9.921875-3.472656c.105468-.039063.199218-.085937.292968-.132813 4.949219-1.742187 10.441407-3.664062 16.476563-5.761718 29.878906-10.398438 128.996094-31.167969 188.746094-2.628906-.371094.796874-1.171875 1.378906-2.171875 1.34375-75.191406-2.777344-150.070313 29.105468-199.851563 90.785156-1.042969 1.292968-3.046875 1.101562-3.832031-.363282-12.183594-22.792968-20.121094-47.53125-23.566406-72.929687zm0 0" fill="url(#q)"/><path d="m1.964844 411.203125c-.148438-1.082031.492187-2.117187 1.523437-2.480469l22.378907-7.832031c2.292968-.800781 1.9375-4.144531-.46875-4.453125l-11.027344-1.40625c-2.46875-.316406-2.746094-3.785156-.355469-4.484375 2.179687-.640625 2.210937-3.71875.046875-4.402344l-12.445312-3.929687c-.96875-.300782-1.6250005-1.203125-1.617188-2.214844.15625-16.464844 2.199219-32.988281 6.191406-49.234375 64.640625-10.984375 145.226563 7.6875 217.765625 56.316406 2.53125 1.699219 5.019531 3.425781 7.488281 5.164063-.335937.863281-1.179687 1.503906-2.230468 1.464844-75.191406-2.777344-150.070313 29.105468-199.851563 90.785156-1.042969 1.292968-3.046875 1.101562-3.832031-.363282-12.183594-22.792968-20.121094-47.53125-23.566406-72.929687zm0 0" fill="url(#r)"/><path d="m44.101562 251.59375c4.484376-5.894531 9.222657-11.5 14.1875-16.8125.863282-.921875 2.3125-.964844 3.238282-.109375l16.636718 15.328125c1.957032 1.804688 4.902344-.601562 3.527344-2.878906l-12.5-20.683594c-.566406-.933594-.398437-2.144531.402344-2.882812 45.878906-42.292969 107.5-62.023438 168.074219-55.863282 1.652343.167969 2.589843 1.953125 1.792969 3.40625-38.144532 69.480469-39.195313 150.855469-8.0625 219.355469.28125.609375.265624 1.246094.046874 1.792969-84.117187-56.390625-158.914062-117.042969-187.34375-140.652344zm0 0" fill="url(#s)"/><path d="m337.027344 511.523438c.6875 1.078124 2.328125.144531 1.75-.992188-.03125-.054688-.058594-.113281-.085938-.167969-2.820312-5.550781-5.933594-10.945312-9.101562-16.316406-1.621094-2.65625-3.253906-5.316406-4.960938-7.921875l-2.546875-3.921875-2.617187-3.875c-3.488282-5.171875-7.21875-10.175781-10.992188-15.148437-7.542968-9.949219-15.753906-19.378907-24.257812-28.527344-4.226563-4.601563-8.707032-8.960938-13.144532-13.359375l-6.828124-6.414063c-2.28125-2.140625-4.65625-4.167968-6.980469-6.253906l-3.523438-3.089844-3.605469-2.996094c-2.414062-1.976562-4.777343-4.027343-7.238281-5.945312l-7.40625-5.742188-1.855469-1.429687-1.890624-1.378906-3.796876-2.746094c-5.019531-3.714844-10.238281-7.148437-15.421874-10.621094-2.59375-1.730469-5.273438-3.335937-7.914063-4.996093-2.667969-1.621094-5.285156-3.316407-8.015625-4.828126-16.222656-9.488281-33.070312-17.882812-50.425781-24.9375-1.183594-.480468-1.972657 1.238282-.839844 1.832032 16.527344 8.664062 32.644531 17.941406 48.246094 28 2.621093 1.613281 5.128906 3.40625 7.683593 5.125 2.535157 1.742187 5.132813 3.394531 7.628907 5.1875 4.980469 3.613281 10.0625 7.078125 14.910156 10.863281 9.859375 7.347656 19.367187 15.148437 28.609375 23.242187 9.289062 8.046876 18.175781 16.542969 26.789062 25.308594 8.65625 8.730469 16.847657 17.90625 24.808594 27.292969 3.964844 4.707031 7.796875 9.523437 11.574219 14.390625l2.824219 3.65625 2.757812 3.707031c1.859375 2.460938 3.613282 4.992188 5.414063 7.496094 3.597656 5.085937 7.101562 10.242187 10.453125 15.507813zm0 0" fill="url(#t)"/></svg>