<svg height="512pt" viewBox="0 -20 512 511" width="512pt" xmlns="http://www.w3.org/2000/svg"><path d="m493.679688 239.804688c0 22.898437-3.308594 45.015624-9.472657 65.917968-14.445312 48.96875-44.578125 91.222656-84.582031 120.925782-38.699219 28.75-86.628906 45.75-138.542969 45.75-128.457031 0-232.597656-104.140626-232.597656-232.597657 0-64.277343 26.078125-122.464843 68.234375-164.566406 42.082031-42.03125 100.1875-68.03125 164.367188-68.03125 48.171874 0 92.921874 14.652344 130.042968 39.730469 61.875 41.796875 102.550782 112.585937 102.550782 192.871094zm0 0" fill="#5f9eeb"/><path d="m493.679688 239.804688c0 22.902343-3.3125 45.011718-9.46875 65.921874-14.445313 48.960938-44.582032 91.222657-84.589844 120.921876-38.695313 28.753906-86.625 45.753906-138.535156 45.753906-5.242188 0-10.449219-.179688-15.605469-.515625 45.902343-3.042969 88.152343-19.386719 122.933593-45.238281 40.007813-29.699219 70.136719-71.960938 84.589844-120.921876 6.15625-20.910156 9.472656-43.019531 9.472656-65.921874 0-80.28125-40.679687-151.074219-102.550781-192.867188-33.085937-22.359375-72.242187-36.425781-114.472656-39.21875 5.164063-.335938 10.378906-.515625 15.628906-.515625 48.175781 0 92.929688 14.652344 130.050781 39.734375 61.871094 41.792969 102.546876 112.582031 102.546876 192.867188zm0 0" fill="#3a82d0"/><path d="m493.679688 239.804688c0 22.902343-3.3125 45.011718-9.46875 65.921874l-25.285157-25.28125-15.902343-15.902343c-1.503907-1.507813-3.4375-2.507813-5.535157-2.867188l-46.894531-8.074219c-2.097656-.359374-4.03125-1.363281-5.539062-2.867187l-6.179688-6.183594c-1.933594-1.929687-3.019531-4.550781-3.019531-7.28125v-63.363281c0-2.730469 1.085937-5.351562 3.019531-7.28125l9.238281-9.242188c1.933594-1.933593 3.019531-4.550781 3.019531-7.285156v-103.160156c61.871094 41.792969 102.546876 112.582031 102.546876 192.867188zm0 0" fill="#a0d37d"/><path d="m493.679688 239.804688c0 22.902343-3.3125 45.011718-9.46875 65.921874l-25.285157-25.28125c2.332031-13.199218 3.546875-26.769531 3.546875-40.640624 0-65.851563-27.359375-125.304688-71.339844-167.613282v-25.253906c61.871094 41.792969 102.546876 112.582031 102.546876 192.867188zm0 0" fill="#84b75b"/><path d="m399.625 380.996094v45.652344c-38.6875 28.742187-86.601562 45.742187-138.496094 45.75-126.570312.023437-230.53125-102.132813-232.609375-228.683594-1.082031-65.828125 25.191407-125.527344 68.199219-168.480469l17.914062 49.664063c1.457032 4.039062 5.289063 6.730468 9.582032 6.730468h69.613281c2.699219 0 5.292969 1.070313 7.203125 2.980469l30.796875 30.796875c1.910156 1.910156 2.984375 4.503906 2.984375 7.203125v118.105469c0 2.699218 1.070312 5.292968 2.984375 7.199218l24.742187 24.746094c1.910157 1.910156 4.503907 2.984375 7.203126 2.984375h74.535156c2.703125 0 5.292968 1.074219 7.203125 2.984375l45.160156 45.160156c1.910156 1.914063 2.984375 4.503907 2.984375 7.207032zm0 0" fill="#a0d37d"/><path d="m399.628906 398.816406v27.835938c-38.695312 28.742187-86.609375 45.742187-138.5 45.75-5.230468 0-10.425781-.175782-15.574218-.523438 45.875-3.050781 88.101562-19.390625 122.859374-45.226562 11.226563-8.335938 21.675782-17.65625 31.214844-27.835938zm0 0" fill="#84b75b"/><g fill="#eb5777"><path d="m221.820312 372.617188h-6.183593c-4.265625 0-7.726563-3.460938-7.726563-7.726563 0-4.269531 3.460938-7.726563 7.726563-7.726563h6.183593c4.265626 0 7.726563 3.460938 7.726563 7.726563s-3.460937 7.726563-7.726563 7.726563zm0 0"/><path d="m286.242188 372.617188h-10.734376c-4.269531 0-7.726562-3.460938-7.726562-7.726563 0-4.269531 3.457031-7.726563 7.726562-7.726563h10.734376c4.269531 0 7.726562 3.460938 7.726562 7.726563.003906 4.265625-3.457031 7.726563-7.726562 7.726563zm-32.210938 0h-10.734375c-4.269531 0-7.726563-3.460938-7.726563-7.726563 0-4.269531 3.457032-7.726563 7.726563-7.726563h10.734375c4.269531 0 7.726562 3.460938 7.726562 7.726563s-3.457031 7.726563-7.726562 7.726563zm0 0"/><path d="m313.898438 372.617188h-6.179688c-4.265625 0-7.726562-3.460938-7.726562-7.726563 0-3.785156 2.722656-6.929687 6.3125-7.597656.664062-3.589844 3.8125-6.308594 7.59375-6.308594 4.269531 0 7.726562 3.457031 7.726562 7.726563v6.179687c.003906 4.265625-3.457031 7.726563-7.726562 7.726563zm0 0"/><path d="m313.898438 341.898438c-4.265626 0-7.722657-3.457032-7.722657-7.726563v-12.269531c0-4.265625 3.457031-7.722656 7.722657-7.722656 4.269531 0 7.726562 3.457031 7.726562 7.722656v12.269531c.003906 4.269531-3.457031 7.726563-7.726562 7.726563zm0-36.804688c-4.265626 0-7.722657-3.457031-7.722657-7.726562v-12.269532c0-4.265625 3.457031-7.726562 7.722657-7.726562 4.269531 0 7.726562 3.460937 7.726562 7.726562v12.269532c.003906 4.269531-3.457031 7.726562-7.726562 7.726562zm0-36.804688c-4.265626 0-7.722657-3.460937-7.722657-7.726562v-12.269531c0-4.265625 3.457031-7.726563 7.722657-7.726563 4.269531 0 7.726562 3.460938 7.726562 7.726563v12.269531c.003906 4.265625-3.457031 7.726562-7.726562 7.726562zm0-36.804687c-4.265626 0-7.722657-3.460937-7.722657-7.726563v-12.269531c0-4.265625 3.457031-7.726562 7.722657-7.726562 4.269531 0 7.726562 3.460937 7.726562 7.726562v12.269531c.003906 4.265626-3.457031 7.726563-7.726562 7.726563zm0-36.804687c-4.265626 0-7.722657-3.460938-7.722657-7.726563v-12.269531c0-4.269532 3.457031-7.726563 7.722657-7.726563 4.269531 0 7.726562 3.460938 7.726562 7.726563v12.269531c.003906 4.265625-3.457031 7.726563-7.726562 7.726563zm0-36.808594c-4.265626 0-7.722657-3.457032-7.722657-7.722656v-12.269532c0-4.269531 3.457031-7.726562 7.722657-7.726562 4.269531 0 7.726562 3.457031 7.726562 7.726562v12.269532c.003906 4.265624-3.457031 7.722656-7.726562 7.722656zm0 0"/><path d="m313.898438 121.070312c-4.265626 0-7.722657-3.460937-7.722657-7.726562v-6.179688c0-4.269531 3.457031-7.726562 7.722657-7.726562 4.269531 0 7.726562 3.457031 7.726562 7.726562v6.179688c.003906 4.265625-3.457031 7.726562-7.726562 7.726562zm0 0"/><path d="m462.6875 218.992188h-12.363281c-4.265625 0-7.726563-3.457032-7.726563-7.722657 0-4.269531 3.460938-7.726562 7.726563-7.726562h12.363281c4.265625 0 7.722656 3.457031 7.722656 7.726562 0 4.265625-3.457031 7.722657-7.722656 7.722657zm-37.085938 0h-12.363281c-4.265625 0-7.726562-3.457032-7.726562-7.722657 0-4.269531 3.460937-7.726562 7.726562-7.726562h12.363281c4.265626 0 7.722657 3.457031 7.722657 7.726562 0 4.265625-3.457031 7.722657-7.722657 7.722657zm-37.089843 0h-12.359375c-4.269532 0-7.726563-3.457032-7.726563-7.722657 0-4.269531 3.457031-7.726562 7.726563-7.726562h12.359375c4.269531 0 7.726562 3.457031 7.726562 7.726562 0 4.265625-3.457031 7.722657-7.726562 7.722657zm-37.085938 0h-12.359375c-4.269531 0-7.726562-3.457032-7.726562-7.722657 0-4.269531 3.457031-7.726562 7.726562-7.726562h12.359375c4.269531 0 7.726563 3.457031 7.726563 7.726562 0 4.265625-3.457032 7.722657-7.726563 7.722657zm112.699219-23.28125c-4.265625 0-7.726562-3.460938-7.726562-7.726563v-8.84375c0-4.269531 3.460937-7.726563 7.726562-7.726563 4.269531 0 7.726562 3.457032 7.726562 7.726563v8.84375c0 4.269531-3.457031 7.726563-7.726562 7.726563zm0 0"/><path d="m289.335938 218.992188h-12.363282c-4.269531 0-7.726562-3.457032-7.726562-7.722657 0-4.269531 3.457031-7.726562 7.726562-7.726562h12.363282c4.265624 0 7.722656 3.457031 7.722656 7.726562 0 4.265625-3.457032 7.722657-7.722656 7.722657zm-37.089844 0h-12.359375c-4.269531 0-7.726563-3.457032-7.726563-7.722657 0-4.269531 3.457032-7.726562 7.726563-7.726562h12.359375c4.269531 0 7.726562 3.457031 7.726562 7.726562 0 4.265625-3.457031 7.722657-7.726562 7.722657zm-37.085938 0h-12.359375c-4.269531 0-7.726562-3.457032-7.726562-7.722657 0-4.269531 3.457031-7.726562 7.726562-7.726562h12.359375c4.269532 0 7.726563 3.457031 7.726563 7.726562 0 4.265625-3.457031 7.722657-7.726563 7.722657zm-37.085937 0h-12.363281c-4.265626 0-7.726563-3.457032-7.726563-7.722657 0-4.269531 3.460937-7.726562 7.726563-7.726562h12.363281c4.265625 0 7.726562 3.457031 7.726562 7.726562 0 4.265625-3.457031 7.722657-7.726562 7.722657zm-37.085938 0h-12.363281c-4.265625 0-7.726562-3.457032-7.726562-7.722657 0-4.269531 3.460937-7.726562 7.726562-7.726562h12.363281c4.265625 0 7.726563 3.457031 7.726563 7.726562 0 4.265625-3.460938 7.722657-7.726563 7.722657zm-37.085937 0h-12.363282c-4.265624 0-7.726562-3.457032-7.726562-7.722657 0-4.269531 3.460938-7.726562 7.726562-7.726562h12.363282c4.265625 0 7.726562 3.457031 7.726562 7.726562 0 4.265625-3.460937 7.722657-7.726562 7.722657zm0 0"/></g><path d="m512 133.96875c0 5.546875-.988281 10.859375-2.800781 15.785156-6.425781 17.496094-23.242188 29.984375-42.96875 29.984375-19.726563 0-36.542969-12.488281-42.972657-29.984375-1.808593-4.925781-2.796874-10.238281-2.796874-15.785156 0-25.28125 20.496093-45.769531 45.769531-45.769531 25.273437 0 45.769531 20.488281 45.769531 45.769531zm0 0" fill="#faaa3c"/><path d="m509.199219 149.753906c-6.425781 17.496094-23.242188 29.984375-42.96875 29.984375-19.726563 0-36.542969-12.488281-42.972657-29.984375 6.429688-17.511718 23.242188-29.988281 42.972657-29.988281s36.542969 12.476563 42.96875 29.988281zm0 0" fill="#4fceb7"/><path d="m491.480469 100.5625c0 13.945312-11.304688 25.253906-25.25 25.253906-13.945313 0-25.253907-11.308594-25.253907-25.253906s11.308594-25.25 25.253907-25.25c13.945312 0 25.25 11.304688 25.25 25.25zm0 0" fill="#f8c298"/><path d="m91.539062 207.148438c0 5.546874-.988281 10.859374-2.800781 15.785156-6.425781 17.496094-23.242187 29.984375-42.96875 29.984375-19.730469 0-36.542969-12.488281-42.96875-29.984375-1.8125-4.925782-2.800781-10.238282-2.800781-15.785156 0-25.285157 20.496094-45.769532 45.769531-45.769532 25.273438 0 45.769531 20.484375 45.769531 45.769532zm0 0" fill="#faaa3c"/><path d="m88.738281 222.933594c-6.425781 17.496094-23.242187 29.984375-42.96875 29.984375-19.730469 0-36.542969-12.488281-42.96875-29.984375 6.425781-17.507813 23.242188-29.988282 42.96875-29.988282 19.726563 0 36.542969 12.476563 42.96875 29.988282zm0 0" fill="#4fceb7"/><path d="m71.023438 173.742188c0 13.945312-11.308594 25.25-25.253907 25.25-13.945312 0-25.25-11.304688-25.25-25.25 0-13.945313 11.304688-25.253907 25.25-25.253907 13.945313 0 25.253907 11.308594 25.253907 25.253907zm0 0" fill="#f8c298"/><path d="m213.445312 358.710938c0 5.542968-.988281 10.855468-2.796874 15.78125-6.429688 17.496093-23.246094 29.988281-42.972657 29.988281-19.726562 0-36.542969-12.492188-42.972656-29.988281-1.808594-4.925782-2.796875-10.238282-2.796875-15.78125 0-25.285157 20.496094-45.773438 45.769531-45.773438 25.273438 0 45.769531 20.488281 45.769531 45.773438zm0 0" fill="#627687"/><path d="m210.648438 374.492188c-6.429688 17.496093-23.246094 29.988281-42.972657 29.988281-19.726562 0-36.542969-12.492188-42.972656-29.988281 6.429687-17.507813 23.246094-29.988282 42.972656-29.988282 19.726563 0 36.542969 12.480469 42.972657 29.988282zm0 0" fill="#f1dd47"/><path d="m192.929688 325.300781c0 13.949219-11.308594 25.253907-25.253907 25.253907-13.945312 0-25.25-11.304688-25.25-25.253907 0-13.945312 11.304688-25.25 25.25-25.25 13.945313 0 25.253907 11.304688 25.253907 25.25zm0 0" fill="#d88852"/><path d="m359.671875 59.15625c0 5.546875-.992187 10.859375-2.800781 15.785156-6.429688 17.496094-23.242188 29.988282-42.972656 29.988282-19.726563 0-36.539063-12.492188-42.96875-29.988282-1.8125-4.925781-2.800782-10.238281-2.800782-15.785156 0-25.28125 20.496094-45.769531 45.769532-45.769531 25.277343.003906 45.773437 20.488281 45.773437 45.769531zm0 0" fill="#faaa3c"/><path d="m356.871094 74.941406c-6.429688 17.496094-23.242188 29.988282-42.972656 29.988282-19.726563 0-36.539063-12.492188-42.96875-29.988282 6.429687-17.507812 23.242187-29.988281 42.96875-29.988281 19.730468 0 36.542968 12.480469 42.972656 29.988281zm0 0" fill="#ed7a98"/><path d="m339.152344 25.753906c0 13.945313-11.304688 25.25-25.253906 25.25-13.945313 0-25.25-11.304687-25.25-25.25 0-13.949218 11.304687-25.253906 25.25-25.253906 13.949218 0 25.253906 11.304688 25.253906 25.253906zm0 0" fill="#f8c298"/></svg>