<svg id="Capa_1" enable-background="new 0 0 512 512" height="16px" viewBox="0 0 512 512" width="16px" xmlns="http://www.w3.org/2000/svg"><path d="m256 0c-141.159 0-256 114.841-256 256s114.841 256 256 256 256-114.841 256-256-114.841-256-256-256z" fill="#d20041"/><path d="m256 0v512c141.159 0 256-114.841 256-256s-114.841-256-256-256z" fill="#be003b"/><path d="m256 60c-108.075 0-196 87.925-196 196s87.925 196 196 196 196-87.925 196-196-87.925-196-196-196z" fill="#eeeef2"/><path d="m256 60v392c108.075 0 196-87.925 196-196s-87.925-196-196-196z" fill="#e1e1e6"/><path d="m376.132 271h-240.264c-8.284 0-15-6.716-15-15s6.716-15 15-15h240.265c8.284 0 15 6.716 15 15s-6.716 15-15.001 15z" fill="#474f55"/><path d="m376.132 241h-120.132v30h120.132c8.284 0 15-6.716 15-15s-6.715-15-15-15z" fill="#32393f"/></svg>