<?xml version="1.0" encoding="iso-8859-1"?>
<!-- Generator: Adobe Illustrator 19.0.0, SVG Export Plug-In . SVG Version: 6.00 Build 0)  -->
<svg height="16px" width="16px" version="1.1" id="Capa_1" xmlns="http://www.w3.org/2000/svg" xmlns:xlink="http://www.w3.org/1999/xlink" x="0px" y="0px"
	 viewBox="0 0 512 512" style="enable-background:new 0 0 512 512;" xml:space="preserve">
<path style="fill:#F2427F;" d="M472.317,199.664l-28.706-3.394c-3.39-10.654-7.657-20.915-12.726-30.696l17.903-22.707
	c10.612-13.46,10.91-31.065,0.698-41.278l-39.083-39.083c-10.213-10.213-27.818-9.915-41.279,0.699L346.418,81.11
	c-9.782-5.068-20.043-9.336-30.697-12.724l-3.396-28.705c-0.787-6.649-3.139-12.626-6.567-17.45
	C207.49,54.481,136.52,146.945,136.52,256s70.97,201.519,169.239,233.769c3.428-4.823,5.78-10.801,6.567-17.45l3.396-28.705
	c10.657-3.39,20.922-7.659,30.706-12.729l22.706,17.903c13.461,10.613,31.065,10.91,41.278,0.697l39.083-39.083
	c10.213-10.213,9.915-27.819-0.699-41.279l-17.904-22.706c5.067-9.782,9.335-20.043,12.724-30.697l28.705-3.395
	C489.342,310.311,502,298.073,502,283.63v-55.271C502,213.915,489.34,201.677,472.317,199.664z"/>
<path style="fill:#FFFFFF;" d="M156.946,256c0-74.811,54.147-136.97,125.387-149.438c-8.553-1.497-17.351-2.283-26.333-2.283
	c-83.793,0-151.72,67.928-151.72,151.72c0,83.793,67.927,151.721,151.72,151.721c8.982,0,17.78-0.786,26.333-2.283
	C211.093,392.97,156.946,330.811,156.946,256z"/>
<path style="fill:#FFD41D;" d="M407.721,256c0-74.811-54.147-136.97-125.387-149.438C211.093,119.03,156.946,181.189,156.946,256
	s54.147,136.97,125.387,149.438C353.573,392.97,407.721,330.811,407.721,256z"/>
<path d="M283.63,512h-55.271c-19.425,0-36.03-16.555-38.626-38.509l-2.65-22.417c-6.901-2.439-13.691-5.254-20.294-8.413
	l-17.73,13.979c-17.359,13.687-40.808,13.649-54.541-0.084l-39.082-39.083c-13.735-13.735-13.771-37.183-0.083-54.542L69.334,345.2
	c-3.158-6.602-5.973-13.392-8.411-20.294l-22.417-2.652C16.554,319.659,0,303.053,0,283.63v-55.271
	c0-19.424,16.555-36.029,38.508-38.625l22.418-2.651c2.439-6.901,5.254-13.691,8.413-20.293L55.36,149.06
	c-13.687-17.358-13.65-40.806,0.084-54.541l39.082-39.082c13.736-13.736,37.184-13.77,54.543-0.083l17.73,13.981
	c6.6-3.157,13.385-5.969,20.284-8.408l2.65-22.417C192.329,16.555,208.935,0,228.359,0h55.271c19.424,0,36.029,16.554,38.626,38.506
	l2.651,22.417c6.901,2.438,13.691,5.253,20.294,8.412l17.73-13.981c17.361-13.688,40.809-13.651,54.543,0.083l39.083,39.083
	c13.733,13.735,13.77,37.183,0.084,54.541l-13.979,17.731c3.157,6.6,5.972,13.39,8.412,20.293l22.417,2.651h0.001
	C495.445,192.33,512,208.935,512,228.359v55.271c0,19.423-16.555,36.028-38.507,38.625l-22.416,2.652
	c-2.438,6.902-5.253,13.692-8.411,20.294l13.981,17.731c13.688,17.36,13.651,40.808-0.083,54.542l-39.082,39.082
	c-13.734,13.735-37.182,13.769-54.541,0.085l-17.73-13.98c-6.606,3.161-13.398,5.976-20.304,8.416l-2.651,22.416
	C319.659,495.446,303.054,512,283.63,512z M165.575,420.886c1.569,0,3.147,0.369,4.598,1.121c9.323,4.83,19.123,8.893,29.129,12.076
	c3.74,1.189,6.438,4.458,6.899,8.355l3.394,28.706c1.406,11.89,9.473,20.857,18.765,20.857h55.271
	c9.291,0,17.358-8.966,18.765-20.856l3.396-28.705c0.461-3.898,3.16-7.166,6.9-8.355c10.008-3.183,19.811-7.247,29.136-12.078
	c3.489-1.807,7.709-1.405,10.792,1.026l22.706,17.903c9.402,7.413,21.446,8.048,28.016,1.479l39.082-39.083
	c6.57-6.569,5.934-18.614-1.479-28.017l-17.904-22.706c-2.432-3.083-2.833-7.305-1.026-10.792c4.827-9.32,8.89-19.12,12.073-29.128
	c1.189-3.74,4.457-6.439,8.354-6.9l28.704-3.396C483.034,300.987,492,292.921,492,283.63v-55.271
	c0-9.291-8.967-17.358-20.857-18.764h0.001l-28.706-3.394c-3.898-0.46-7.166-3.159-8.355-6.899
	c-3.186-10.012-7.248-19.812-12.075-29.127c-1.807-3.487-1.405-7.708,1.026-10.792l17.903-22.707
	c7.412-9.402,8.048-21.446,1.479-28.016l-39.083-39.082c-6.569-6.571-18.613-5.932-28.017,1.48L352.61,88.962
	c-3.084,2.432-7.308,2.833-10.792,1.026c-9.322-4.829-19.123-8.892-29.128-12.073c-3.74-1.189-6.439-4.457-6.9-8.355l-3.396-28.705
	C300.988,28.966,292.921,20,283.63,20h-55.271c-9.292,0-17.358,8.967-18.765,20.857L206.2,69.562
	c-0.461,3.898-3.159,7.166-6.899,8.355c-10.005,3.183-19.802,7.244-29.12,12.071c-3.487,1.807-7.708,1.404-10.791-1.027
	l-22.706-17.904c-9.402-7.415-21.448-8.05-28.017-1.48L69.586,108.66c-6.57,6.57-5.935,18.614,1.479,28.016l17.902,22.706
	c2.432,3.083,2.833,7.305,1.026,10.791c-4.829,9.322-8.892,19.123-12.075,29.129c-1.189,3.74-4.457,6.438-8.355,6.899l-28.706,3.394
	C28.967,211.001,20,219.068,20,228.359v55.271c0,9.291,8.966,17.357,20.855,18.764l28.705,3.396c3.897,0.461,7.165,3.16,8.354,6.9
	c3.184,10.008,7.246,19.809,12.073,29.128c1.807,3.486,1.405,7.708-1.026,10.792l-17.904,22.707
	c-7.414,9.402-8.05,21.446-1.479,28.016l39.082,39.083c6.568,6.568,18.613,5.935,28.016-1.479l22.706-17.902
	C161.183,421.613,163.371,420.886,165.575,420.886z"/>
<path d="M294.146,412.886c-4.448,0-8.507-2.989-9.674-7.495c-1.385-5.346,1.827-10.803,7.173-12.188
	C354.102,377.026,397.721,320.606,397.721,256c0-78.145-63.575-141.721-141.721-141.721S114.279,177.855,114.279,256
	c0,62.454,41.799,118.37,101.646,135.978c5.299,1.559,8.33,7.118,6.771,12.416c-1.56,5.298-7.115,8.331-12.416,6.771
	c-32.817-9.655-62.345-30.053-83.142-57.435c-21.498-28.303-32.86-62.098-32.86-97.729c0-89.173,72.548-161.721,161.721-161.721
	S417.721,166.827,417.721,256c0,73.72-49.781,138.102-121.06,156.564C295.82,412.782,294.977,412.886,294.146,412.886z"/>
<path d="M328.268,320.903c-2.108,0-4.232-0.664-6.041-2.038l-72.275-54.903c-2.49-1.89-3.952-4.836-3.952-7.962v-49.625
	c0-5.523,4.478-10,10-10s10,4.477,10,10v44.663l68.324,51.902c4.398,3.341,5.255,9.614,1.914,14.012
	C334.271,319.542,331.287,320.903,328.268,320.903z"/>
<circle cx="256" cy="164.02" r="10"/>
<circle cx="252.36" cy="407.72" r="10"/>
<g>
</g>
<g>
</g>
<g>
</g>
<g>
</g>
<g>
</g>
<g>
</g>
<g>
</g>
<g>
</g>
<g>
</g>
<g>
</g>
<g>
</g>
<g>
</g>
<g>
</g>
<g>
</g>
<g>
</g>
</svg>
