<svg height="16px" viewBox="0 -29 512 512" width="16px" xmlns="http://www.w3.org/2000/svg"><path d="m205.484375 390.679688h101.03125v55.863281h-101.03125zm0 0" fill="#4e7693"/><path d="m205.488281 390.679688h101.023438v17.386718h-101.023438zm0 0" fill="#38627c"/><path d="m512 51.351562v331.78125c0 5.820313-4.707031 10.515626-10.519531 10.515626h-490.960938c-5.8125 0-10.519531-4.695313-10.519531-10.515626v-331.78125c0-8.703124 7.066406-15.773437 15.773438-15.773437h480.453124c8.714844 0 15.773438 7.070313 15.773438 15.773437zm0 0" fill="#e3f4ff"/><path d="m512 51.351562v331.78125c0 5.820313-4.707031 10.515626-10.519531 10.515626h-22.867188c5.808594 0 10.515625-4.695313 10.515625-10.515626v-331.78125c0-8.703124-7.066406-15.761718-15.769531-15.761718l.007813-.011719h22.859374c8.714844 0 15.773438 7.070313 15.773438 15.773437zm0 0" fill="#bddff4"/><path d="m512 343.234375v39.898437c0 5.820313-4.707031 10.519532-10.507812 10.519532h-490.984376c-5.800781 0-10.507812-4.699219-10.507812-10.519532v-39.898437zm0 0" fill="#4e7693"/><path d="m512 343.234375v39.898437c0 5.820313-4.707031 10.519532-10.507812 10.519532h-22.878907c5.808594 0 10.515625-4.699219 10.515625-10.519532v-39.898437zm0 0" fill="#38627c"/><path d="m346.140625 454.269531h-180.28125c-4.269531 0-7.726563-3.457031-7.726563-7.726562 0-4.265625 3.460938-7.726563 7.726563-7.726563h180.28125c4.269531 0 7.726563 3.460938 7.726563 7.726563 0 4.269531-3.460938 7.726562-7.726563 7.726562zm0 0" fill="#38627c"/><path d="m421.640625 343.234375h-331.28125v-332.933594c0-5.6875 4.613281-10.300781 10.300781-10.300781h310.679688c5.691406 0 10.300781 4.613281 10.300781 10.300781zm0 0" fill="#9cc6db"/><path d="m181.34375 343.234375h-53.464844v-51.070313c0-5.691406 4.609375-10.300781 10.300782-10.300781h32.863281c5.691406 0 10.304687 4.609375 10.304687 10.300781v51.070313zm0 0" fill="#fc3e81"/><path d="m282.734375 343.234375h-53.46875v-51.070313c0-5.691406 4.613281-10.300781 10.300781-10.300781h32.867188c5.6875 0 10.300781 4.609375 10.300781 10.300781zm0 0" fill="#43a3f9"/><path d="m384.121094 343.234375h-53.464844v-51.070313c0-5.691406 4.609375-10.300781 10.300781-10.300781h32.863281c5.691407 0 10.304688 4.609375 10.304688 10.300781v51.070313zm0 0" fill="#9be058"/><path d="m90.359375 73.144531h331.28125v167.398438h-331.28125zm0 0" fill="#4e7693"/><path d="m165.859375 55.113281h-39.664063c-4.265624 0-7.722656-3.457031-7.722656-7.726562 0-4.265625 3.457032-7.726563 7.722656-7.726563h39.664063c4.269531 0 7.726563 3.460938 7.726563 7.726563 0 4.269531-3.457032 7.726562-7.726563 7.726562zm0 0" fill="#9be058"/><path d="m275.300781 55.113281c-4.265625 0-7.765625-3.457031-7.765625-7.726562 0-4.265625 3.417969-7.726563 7.6875-7.726563h.078125c4.269531 0 7.726563 3.460938 7.726563 7.726563 0 4.269531-3.457032 7.726562-7.726563 7.726562zm0 0" fill="#e3f4ff"/><path d="m302.160156 55.113281c-4.269531 0-7.769531-3.457031-7.769531-7.726562 0-4.265625 3.417969-7.726563 7.6875-7.726563h.082031c4.265625 0 7.726563 3.460938 7.726563 7.726563 0 4.269531-3.460938 7.726562-7.726563 7.726562zm0 0" fill="#e3f4ff"/><path d="m329.015625 55.113281c-4.269531 0-7.769531-3.457031-7.769531-7.726562 0-4.265625 3.417968-7.726563 7.6875-7.726563h.082031c4.265625 0 7.722656 3.460938 7.722656 7.726563.003907 4.269531-3.457031 7.726562-7.722656 7.726562zm0 0" fill="#e3f4ff"/><path d="m355.871094 55.113281c-4.265625 0-7.765625-3.457031-7.765625-7.726562 0-4.265625 3.417969-7.726563 7.683593-7.726563h.082032c4.269531 0 7.726562 3.460938 7.726562 7.726563 0 4.269531-3.457031 7.726562-7.726562 7.726562zm0 0" fill="#e3f4ff"/><path d="m382.726562 55.113281c-4.265624 0-7.765624-3.457031-7.765624-7.726562 0-4.265625 3.417968-7.726563 7.6875-7.726563h.078124c4.269532 0 7.726563 3.460938 7.726563 7.726563 0 4.269531-3.457031 7.726562-7.726563 7.726562zm0 0" fill="#e3f4ff"/><path d="m366.019531 206.238281h-35.40625c-5.121093 0-9.273437-4.152343-9.273437-9.277343 0-5.121094 4.152344-9.273438 9.273437-9.273438h35.40625c5.121094 0 9.273438 4.152344 9.273438 9.273438 0 5.125-4.152344 9.277343-9.273438 9.277343zm0 0" fill="#9be058"/><path d="m321.339844 127.949219c-4.269532 0-7.726563-3.457031-7.726563-7.726563v-3.226562c0-4.269532 3.460938-7.726563 7.726563-7.726563 4.269531 0 7.726562 3.457031 7.726562 7.726563v3.226562c0 4.269532-3.457031 7.726563-7.726562 7.726563zm0 0" fill="#e3f4ff"/><path d="m338.492188 127.949219c-4.265626 0-7.722657-3.457031-7.722657-7.726563v-3.226562c0-4.269532 3.457031-7.726563 7.722657-7.726563 4.269531 0 7.726562 3.457031 7.726562 7.726563v3.226562c0 4.269532-3.457031 7.726563-7.726562 7.726563zm0 0" fill="#e3f4ff"/><path d="m357.269531 151.4375h-35.929687c-4.269532 0-7.726563-3.460938-7.726563-7.726562 0-4.269532 3.460938-7.726563 7.726563-7.726563h35.929687c4.265625 0 7.722657 3.457031 7.722657 7.726563 0 4.265624-3.457032 7.726562-7.722657 7.726562zm0 0" fill="#e3f4ff"/><path d="m387.914062 169.980469h-66.574218c-4.269532 0-7.726563-3.460938-7.726563-7.726563 0-4.269531 3.460938-7.726562 7.726563-7.726562h66.574218c4.269532 0 7.726563 3.457031 7.726563 7.726562 0 4.265625-3.457031 7.726563-7.726563 7.726563zm0 0" fill="#e3f4ff"/><path d="m90.359375 73.144531h202.679687v167.394531h-202.679687zm0 0" fill="#ffeee1"/><path d="m211.167969 145.867188c0 21.394531-17.34375 38.738281-38.738281 38.738281-21.394532 0-38.738282-17.34375-38.738282-38.738281 0-21.394532 17.34375-38.738282 38.738282-38.738282 21.394531 0 38.738281 17.34375 38.738281 38.738282zm0 0" fill="#4e7693"/><path d="m293.039062 73.144531v88.800781l-101.820312-88.800781zm0 0" fill="#9be058"/><path d="m293.039062 73.144531v167.394531h-159.703124l89.625-139.714843 17.761718-27.679688zm0 0" fill="#fc3e81"/><path d="m293.039062 73.144531v88.800781l-70.078124-61.121093 17.761718-27.679688zm0 0" fill="#43a3f9"/><g fill="#9be058"><path d="m195.078125 201.734375c-4.210937 0-7.65625-3.378906-7.722656-7.605469-.066407-4.265625 3.335937-7.8125 7.601562-7.878906.042969 0 .085938-.003906.128907-.003906 4.207031 0 7.652343 3.351562 7.71875 7.574218v.0625c.066406 4.265626-3.335938 7.78125-7.601563 7.847657-.042969.003906-.082031.003906-.125.003906zm0 0"/><path d="m195.070312 220.367188c-4.269531 0-7.726562-3.457032-7.726562-7.726563 0-4.265625 3.460938-7.757813 7.726562-7.757813 4.265626 0 7.726563 3.425782 7.726563 7.695313v.0625c0 4.269531-3.457031 7.726563-7.726563 7.726563zm0 0"/><path d="m214.195312 201.726562c-4.269531 0-7.726562-3.460937-7.726562-7.726562 0-4.269531 3.460938-7.757812 7.726562-7.757812 4.265626 0 7.726563 3.425781 7.726563 7.691406v.066406c0 4.265625-3.457031 7.726562-7.726563 7.726562zm0 0"/><path d="m214.1875 220.359375c-4.269531 0-7.726562-3.457031-7.726562-7.726563 0-4.265624 3.457031-7.757812 7.726562-7.757812 4.265625 0 7.722656 3.429688 7.722656 7.695312v.0625c0 4.269532-3.457031 7.726563-7.722656 7.726563zm0 0"/><path d="m233.3125 201.71875c-4.269531 0-7.726562-3.460938-7.726562-7.726562 0-4.265626 3.457031-7.757813 7.726562-7.757813 4.265625 0 7.722656 3.425781 7.722656 7.691406v.066407c0 4.265624-3.457031 7.726562-7.722656 7.726562zm0 0"/><path d="m233.300781 220.351562c-4.265625 0-7.726562-3.457031-7.726562-7.726562 0-4.265625 3.460937-7.757812 7.726562-7.757812 4.269531 0 7.726563 3.429687 7.726563 7.695312v.0625c0 4.269531-3.457032 7.726562-7.726563 7.726562zm0 0"/></g><path d="m166.25 117.753906c0 10.382813-8.414062 18.796875-18.796875 18.796875s-18.796875-8.414062-18.796875-18.796875c0-10.382812 8.414062-18.800781 18.796875-18.800781s18.796875 8.417969 18.796875 18.800781zm0 0" fill="#ffdf46"/></svg>